<?xml version="1.0" standalone="no"?><!DOCTYPE svg PUBLIC "-//W3C//DTD SVG 1.1//EN" "http://www.w3.org/Graphics/SVG/1.1/DTD/svg11.dtd"><svg t="1777432435847" class="icon" viewBox="0 0 1024 1024" version="1.1" xmlns="http://www.w3.org/2000/svg" p-id="4537" xmlns:xlink="http://www.w3.org/1999/xlink" width="200" height="200"><path d="M753.664 926.72c-5.12 0-10.24-1.536-14.336-4.608l-177.664-121.856h-296.96c-95.232 0-172.544-77.312-172.544-172.544V270.336C92.16 175.104 169.472 97.28 264.704 97.28h494.08c95.232 0 172.544 77.312 172.544 172.544v357.376c0 89.6-69.12 163.84-156.672 172.032l4.096 100.352c0.512 9.728-4.608 18.944-13.312 23.552-3.072 2.56-7.168 3.584-11.776 3.584zM264.704 148.48C198.144 148.48 143.36 203.264 143.36 270.336v357.376c0 67.072 54.784 121.344 121.344 121.344h304.64c5.12 0 10.24 1.536 14.336 4.608l141.824 97.28-3.072-75.264c-0.512-7.168 2.048-13.824 7.168-18.944 4.608-5.12 11.264-7.68 18.432-7.68h10.752c67.072 0 121.344-54.784 121.344-121.344V270.336c0-67.072-54.784-121.344-121.344-121.344L264.704 148.48z" p-id="4538"></path><path d="M324.096 434.176m-51.2 0a51.2 51.2 0 1 0 102.4 0 51.2 51.2 0 1 0-102.4 0Z" fill="#1E1E1E" p-id="4539"></path><path d="M512 434.176m-51.2 0a51.2 51.2 0 1 0 102.4 0 51.2 51.2 0 1 0-102.4 0Z" fill="#1E1E1E" p-id="4540"></path><path d="M699.904 434.176m-51.2 0a51.2 51.2 0 1 0 102.4 0 51.2 51.2 0 1 0-102.4 0Z" fill="#1E1E1E" p-id="4541"></path></svg>