<?xml version="1.0" standalone="no"?><!DOCTYPE svg PUBLIC "-//W3C//DTD SVG 1.1//EN" "http://www.w3.org/Graphics/SVG/1.1/DTD/svg11.dtd"><svg t="1785391797276" class="icon" viewBox="0 0 1024 1024" version="1.1" xmlns="http://www.w3.org/2000/svg" p-id="1292" xmlns:xlink="http://www.w3.org/1999/xlink" width="200" height="200"><path d="M512 42.581333C771.242667 42.581333 981.418667 252.757333 981.418667 512c0 259.242667-210.176 469.418667-469.418667 469.418667H128c-32.597333 0-53.205333-34.986667-37.376-63.530667l59.434667-107.008-8.064-9.941333a467.456 467.456 0 0 1-99.157334-273.792L42.581333 512C42.581333 252.757333 252.757333 42.581333 512 42.581333z m0 85.504A383.914667 383.914667 0 0 0 128.085333 512c0 99.541333 37.973333 193.024 105.088 263.893333 12.8 13.525333 15.36 33.834667 6.314667 50.133334l-38.869333 69.888H512a383.914667 383.914667 0 0 0 383.744-372.608l0.170667-11.306667A383.914667 383.914667 0 0 0 512 128.085333z m0 213.162667c23.594667 0 42.752 19.157333 42.752 42.752l-0.042667 85.205333 85.290667 0.042667c21.930667 0 39.978667 16.512 42.453333 37.76l0.298667 4.992c0 23.594667-19.157333 42.752-42.752 42.752l-85.290667-0.042667 0.042667 85.290667c0 21.930667-16.512 39.978667-37.76 42.453333l-4.992 0.298667A42.752 42.752 0 0 1 469.248 640l-0.042667-85.290667L384 554.752c-21.930667 0-39.978667-16.512-42.453333-37.76L341.248 512c0-23.594667 19.157333-42.752 42.752-42.752l85.205333-0.042667L469.248 384c0-21.930667 16.512-39.978667 37.76-42.453333L512 341.248z" p-id="1293"></path></svg>