<?xml version="1.0" standalone="no"?><!DOCTYPE svg PUBLIC "-//W3C//DTD SVG 1.1//EN" "http://www.w3.org/Graphics/SVG/1.1/DTD/svg11.dtd"><svg t="1777443575501" class="icon" viewBox="0 0 1024 1024" version="1.1" xmlns="http://www.w3.org/2000/svg" p-id="20637" xmlns:xlink="http://www.w3.org/1999/xlink" width="200" height="200"><path d="M981.333333 810.666667h-42.666666V170.666667c0-23.466667-19.2-42.666667-42.666667-42.666667H170.666667V85.333333c0-23.466667-19.2-42.666667-42.666667-42.666666s-42.666667 19.2-42.666667 42.666666v42.666667H42.666667c-23.466667 0-42.666667 19.2-42.666667 42.666667s19.2 42.666667 42.666667 42.666666h42.666666v640c0 23.466667 19.2 42.666667 42.666667 42.666667h725.333333v42.666667c0 23.466667 19.2 42.666667 42.666667 42.666666s42.666667-19.2 42.666667-42.666666v-42.666667h42.666666c23.466667 0 42.666667-19.2 42.666667-42.666667s-19.2-42.666667-42.666667-42.666666zM170.666667 810.666667V213.333333h682.666666v597.333334H170.666667zM256 341.333333c0-23.466667 19.2-42.666667 42.666667-42.666666s42.666667 19.2 42.666666 42.666666-19.2 42.666667-42.666666 42.666667-42.666667-19.2-42.666667-42.666667z m549.12 320l-170.666667-298.666666c-7.253333-12.373333-20.053333-20.48-34.56-21.333334-14.933333-0.426667-28.16 5.546667-36.693333 17.066667l-98.56 131.413333-50.346667-50.346666a42.624 42.624 0 0 0-66.986666 8.106666l-128 213.333334c-8.106667 13.226667-8.106667 29.44-0.426667 43.093333 7.68 13.226667 21.76 21.333333 37.12 21.333333h512c15.36 0 29.44-8.106667 37.12-21.333333 7.253333-13.226667 7.253333-29.44 0-42.666667zM331.52 640l61.013333-101.973333 46.506667 46.506666c8.96 8.96 20.48 13.226667 33.28 12.373334 12.373333-0.853333 23.466667-7.253333 31.146667-17.066667l89.173333-118.613333L694.613333 640H331.52z" p-id="20638"></path></svg>