<?xml version="1.0" standalone="no"?><!DOCTYPE svg PUBLIC "-//W3C//DTD SVG 1.1//EN" "http://www.w3.org/Graphics/SVG/1.1/DTD/svg11.dtd"><svg t="1777433611009" class="icon" viewBox="0 0 1025 1024" version="1.1" xmlns="http://www.w3.org/2000/svg" p-id="12314" xmlns:xlink="http://www.w3.org/1999/xlink" width="200.1953125" height="200"><path d="M917.2475 415.5875l-79.155 0c-7.425-16.0875-18.0225-49.5225-31.544999999999995-73.35000000000001l55.89-54.315c17.6175-17.6175 17.6625-45.3825 0-63l-63.76499999999999-63.38250000000001c-17.6175-17.6175-46.1925-17.415-63.81000000000001 0.20249999999999996L682.0999999999999 217.7c-23.782500000000002-13.522499999999999-57.2175-24.0075-73.30499999999999-31.455L608.7950000000001 107.13499999999999C608.7950000000001 82.1825 582.38 62 557.495 62l-90.22500000000001 0c-24.907500000000002 0-51.3225 20.182499999999997-51.3225 45.135l0 79.13250000000001c-16.0875 7.447499999999999-49.477500000000006 18.0225-73.30499999999999 31.544999999999995L288.35 161.89999999999998C270.665 144.26 242.90000000000003 144.26 225.3275 161.8775L161.89999999999998 225.66500000000002c-17.6175 17.595-17.4375 46.16999999999999 0.22499999999999998 63.83250000000001l55.934999999999995 52.74C204.53749999999997 366.065 194.075 399.5 186.60499999999996 415.5875L107.49499999999995 415.5875c-24.9525 0-45.135 26.415000000000003-45.135 51.277499999999996l0 90.27c0 24.8625 20.16 51.3225 45.135 51.3225L186.65000000000003 608.4575C194.075 624.5 204.6725 657.935 218.195 681.7625l-55.89 54.315c-17.6625 17.6625-17.6625 45.36-0.045 63.0225l63.81000000000001 63.36c17.572499999999998 17.6175 46.1475 17.4375 63.81000000000001-0.18l52.785000000000004-55.98c23.827499999999997 13.499999999999998 57.2175 23.985 73.30499999999999 31.455l0 79.11c0 24.9525 26.415000000000003 45.135 51.277499999999996 45.135l90.22500000000001 0c24.907500000000002 0 51.3225-20.16 51.3225-45.135l0-79.11c16.0875-7.47 49.477500000000006-18.1125 73.35000000000001-31.589999999999996l54.315 55.845c17.6175 17.6625 45.405 17.6625 62.9775 0.09l63.449999999999996-63.81000000000001c17.572499999999998-17.6175 17.3925-46.1925-0.26999999999999996-63.81000000000001l-55.934999999999995-52.785000000000004c13.499999999999998-23.827499999999997 23.985-57.2175 31.455-73.30499999999999l79.11 0c24.9525 0 45.135-26.415000000000003 45.135-51.277499999999996l0-90.27C962.3824999999999 442.0025 942.2 415.5875 917.2475 415.5875L917.2475 415.5875zM512.1125 691.9775c-99.40500000000002 0-180-80.595-180-180.0225 0-99.3825 80.595-179.9775 180-179.9775 99.4275 0 180 80.595 180 179.9775C692.1125 611.3825 611.5400000000001 691.9775 512.1125 691.9775L512.1125 691.9775zM512.1125 691.9775" p-id="12315"></path></svg>